<?xml version="1.0" encoding="UTF-8"?>
<svg width="25px" height="25px" viewBox="0 0 25 25" version="1.1" xmlns="http://www.w3.org/2000/svg" xmlns:xlink="http://www.w3.org/1999/xlink">
    <title>E</title>
    <g id="控件" stroke="none" stroke-width="1" fill="none" fill-rule="evenodd">
        <path d="M25,0 L25,25 L0,25 L0,0 L25,0 Z M8.12143863,13.0365607 L8.00956879,13.0426083 C7.49319496,13.0985632 7.09124164,13.5359333 7.09124164,14.0671859 L7.09124164,14.0671859 L7.09527228,14.3049748 C7.22122838,18.0152367 10.2833727,21 14.0463641,21 C14.6151462,21 15.0764044,20.5392256 15.0769935,19.9704414 L15.0769935,19.9704414 L15.0710687,19.8602078 C15.0162185,19.3534968 14.5868267,18.9610612 14.0463683,18.9610612 L14.0463683,18.9610612 C11.3404822,18.9601277 9.15113061,16.7692606 9.1520637,14.0676255 L9.1520637,14.0676255 L9.14601631,13.9548914 C9.09006141,13.4385172 8.65269124,13.0365607 8.12143863,13.0365607 L8.12143863,13.0365607 Z M19.97,9.902 L19.859934,9.90837172 C19.3507549,9.96551414 18.9398081,10.4107754 18.9398081,10.9115671 L18.9398081,10.9115671 C18.938646,13.6174532 16.7475713,15.8066095 14.0459361,15.8054358 L14.0459361,15.8054358 L13.9336378,15.8114833 C13.4172639,15.8674382 13.0153106,16.3048084 13.0153106,16.836061 C13.0153106,17.4052602 13.4767366,17.8666862 14.0459358,17.8666862 L14.0459358,17.8666862 L14.2850253,17.8626544 C18.0152367,17.7366655 21,14.6739617 21,10.9328139 C21,10.3636147 20.538574,9.90218872 19.9693748,9.90218872 L19.97,9.902 Z M10.9540601,7.13437243 L10.7149747,7.13840423 C6.98476334,7.26439312 4,10.327097 4,14.0682447 C4,14.6370289 4.46077855,15.0982835 5.02956274,15.0988699 L5.02956274,15.0988699 L5.147546,15.0917821 C5.65060502,15.031 6.04045587,14.5877314 6.06018802,14.0894947 L6.06018802,14.0894947 C6.06135013,11.3836087 8.25242486,9.19445228 10.95406,9.19562607 L10.95406,9.19562607 L11.0663582,9.18957851 C11.5827321,9.13362361 11.9846854,8.69625346 11.9846854,8.16500086 C11.9846854,7.59580164 11.5232594,7.13437243 10.9540601,7.13437243 L10.9540601,7.13437243 Z M10.9753102,4 C10.4075874,4.00105572 9.94632932,4.46183218 9.94574015,5.03061636 L9.94574015,5.03061636 L9.94589682,5.04566215 C9.95587436,5.60479666 10.4172298,6.04997446 10.9763643,6.03999634 L10.9763643,6.03999634 C13.6790622,6.03999622 15.8691823,8.2301163 15.8691823,10.9317514 L15.8691823,10.9317514 C15.8691822,11.5020131 16.3306082,11.9634391 16.8998074,11.9634391 C17.4690067,11.9634391 17.9304327,11.5020131 17.9304327,10.9328139 L17.9304327,10.9328139 L17.926402,10.6950252 C17.8004459,6.98476326 14.7383016,4 10.9753102,4 L10.9753102,4 Z" id="E" fill="#7B70AE" fill-rule="nonzero"></path>
    </g>
</svg>